<?xml version="1.0" standalone="no"?><!DOCTYPE svg PUBLIC "-//W3C//DTD SVG 1.1//EN" "http://www.w3.org/Graphics/SVG/1.1/DTD/svg11.dtd"><svg t="1676966369825" class="icon" viewBox="0 0 1024 1024" version="1.1" xmlns="http://www.w3.org/2000/svg" p-id="21391" xmlns:xlink="http://www.w3.org/1999/xlink" width="32" height="32"><path d="M917 212.1L717.8 236c-6.6 0.8-9.4 8.9-4.7 13.6l59.3 59.1-226 225.3-101.8-101.4c-6.3-6.3-16.4-6.2-22.6 0L100.3 753.4c-3.1 3.1-3.1 8.2 0 11.3l45 45.1c3.1 3.1 8.2 3.1 11.3 0L433.3 534 535 635.3c6.3 6.2 16.4 6.2 22.6 0L829 365l59.3 59.1c4.7 4.7 12.8 1.9 13.6-4.7l24-198.6c0.7-5-3.7-9.4-8.9-8.7z" p-id="21392"></path></svg>