<?xml version="1.0" standalone="no"?><!DOCTYPE svg PUBLIC "-//W3C//DTD SVG 1.1//EN" "http://www.w3.org/Graphics/SVG/1.1/DTD/svg11.dtd"><svg t="1676961920669" class="icon" viewBox="0 0 1024 1024" version="1.1" xmlns="http://www.w3.org/2000/svg" p-id="11871" xmlns:xlink="http://www.w3.org/1999/xlink" width="32" height="32"><path d="M690.346667 836.266667l-85.76-148.48c41.813333-30.72 70.826667-78.506667 76.8-133.12H853.333333a364.8 364.8 0 0 1-162.986666 281.6M554.666667 299.946667V128c183.466667 11.093333 330.24 157.866667 341.333333 341.333333h-171.946667A191.488 191.488 0 0 0 554.666667 299.946667M298.666667 533.333333c0 27.306667 5.546667 53.333333 16.213333 76.8L166.4 695.893333A359.253333 359.253333 0 0 1 128 533.333333C128 340.053333 279.04 182.186667 469.333333 170.666667v171.946666c-96 10.666667-170.666667 91.733333-170.666666 190.72m192 362.666667c-126.72 0-238.08-64-302.933334-162.986667l148.48-85.76A190.72 190.72 0 0 0 490.666667 725.333333c27.306667 0 53.333333-5.546667 76.8-16.213333l85.76 148.48c-49.066667 24.746667-104.106667 38.4-162.56 38.4z" fill="#2c2c2c" p-id="11872"></path></svg>