<?xml version="1.0" standalone="no"?><!DOCTYPE svg PUBLIC "-//W3C//DTD SVG 1.1//EN" "http://www.w3.org/Graphics/SVG/1.1/DTD/svg11.dtd"><svg t="1690253651382" class="icon" viewBox="0 0 1024 1024" version="1.1" xmlns="http://www.w3.org/2000/svg" p-id="12069" xmlns:xlink="http://www.w3.org/1999/xlink" width="32" height="32"><path d="M84 209.9l425.3 721.4L936.4 218.1z" fill="#FFFFFF" p-id="12070"></path><path d="M84 209.9l425.3 721.4L936.4 218.1z" fill="#FFFFFF" p-id="12071"></path><path d="M84 209.9l0.3 0.5 792.1 7.7-396.9 662.7 29.8 50.5L936.4 218.1z" fill="#EEEEEE" p-id="12072"></path><path d="M509.3 951.3s-0.1 0 0 0c-7.1 0-13.6-3.8-17.2-9.8L66.8 220c-3.7-6.2-3.7-13.9-0.1-20.2 3.6-6.2 10.3-10.1 17.5-10L936.6 198c7.2 0.1 13.8 4 17.3 10.2 3.5 6.3 3.4 13.9-0.3 20.1L526.5 941.6c-3.7 6-10.2 9.7-17.2 9.7zM119.2 230.2l390.2 662L901.3 237.7 119.2 230.2z" fill="#202D47" p-id="12073"></path><path d="M289.1 559.3l219.6 372.6 220.6-368.4z" fill="#FFFFFF" p-id="12074"></path><path d="M508.7 951.9c-7.1 0-13.6-3.8-17.2-9.8L271.8 569.4c-3.7-6.2-3.7-13.9-0.1-20.2 3.6-6.2 10.3-10.1 17.5-10l440.3 4.2c7.2 0.1 13.8 4 17.3 10.2 3.5 6.3 3.4 13.9-0.3 20.1L525.9 942.2c-3.6 6-10.1 9.7-17.2 9.7zM324.3 579.6l184.6 313.1 185.4-309.6-370-3.5z" fill="#202D47" p-id="12075"></path><path d="M84 203.6a428 111.5 0 1 0 856 0 428 111.5 0 1 0-856 0Z" fill="#2DCD54" p-id="12076"></path><path d="M512 92.1c-218.3 0-398.4 42.6-424.7 97.6 73-34.3 213.4-57.6 374.7-57.6 236.4 0 428 49.9 428 111.5 0 4.7-1.1 9.4-3.3 13.9 34-16 53.3-34.4 53.3-53.9 0-61.6-191.6-111.5-428-111.5z" fill="#31B952" p-id="12077"></path><path d="M512 335.1c-116 0-225.2-11.8-307.7-33.3C163.1 291 130.4 278.3 107.1 264 78.5 246.4 64 226.1 64 203.6s14.5-42.8 43.1-60.4c23.2-14.3 55.9-27 97.2-37.8 82.4-21.5 191.7-33.3 307.7-33.3s225.2 11.8 307.7 33.3c41.2 10.7 73.9 23.4 97.2 37.8 28.6 17.6 43.1 38 43.1 60.4 0 22.5-14.5 42.8-43.1 60.4-23.2 14.3-55.9 27-97.2 37.8C737.2 323.3 628 335.1 512 335.1z m0-223c-112.7 0-218.4 11.4-297.6 32-36.9 9.6-66.7 21.1-86.3 33.1C113 186.5 104 196.4 104 203.6c0 7.2 9 17.1 24.1 26.4 19.6 12.1 49.4 23.5 86.3 33.1 79.2 20.6 184.9 32 297.6 32 112.7 0 218.4-11.4 297.6-32C846.5 253.5 876.3 242 895.9 230 911 220.7 920 210.8 920 203.6c0-7.2-9-17.1-24.1-26.4-19.6-12.1-49.4-23.5-86.3-33.1-79.2-20.6-184.9-32-297.6-32z" fill="#202D47" p-id="12078"></path><path d="M298.1 563.6a213.9 55.7 0 1 0 427.8 0 213.9 55.7 0 1 0-427.8 0Z" fill="#227CE5" p-id="12079"></path><path d="M512 507.9c-114.9 0-208.6 23.6-213.7 53.2 38.8-14 102.2-23.2 173.7-23.2 118.1 0 213.9 24.9 213.9 55.7 0 0.8-0.1 1.7-0.2 2.5 25.3-9.2 40.2-20.4 40.2-32.5 0-30.8-95.8-55.7-213.9-55.7z" fill="#2571CB" p-id="12080"></path><path d="M512 639.3c-58.8 0-114.3-6-156.3-17-21.6-5.6-38.8-12.4-51.3-20-21.8-13.4-26.3-28.5-26.3-38.7s4.6-25.3 26.3-38.7c12.5-7.7 29.7-14.4 51.3-20 42-10.9 97.5-17 156.3-17 58.8 0 114.3 6 156.3 17 21.6 5.6 38.8 12.4 51.3 20 21.8 13.4 26.3 28.5 26.3 38.7s-4.6 25.3-26.3 38.7c-12.5 7.7-29.7 14.4-51.3 20-42 11-97.5 17-156.3 17z m-192.8-75.7c3.9 3.8 16.9 13.4 55.8 22.3 37.6 8.7 86.3 13.4 137 13.4s99.4-4.8 137-13.4c38.8-8.9 51.9-18.5 55.8-22.3-3.9-3.8-16.9-13.4-55.8-22.3-37.6-8.7-86.3-13.4-137-13.4s-99.4 4.8-137 13.4c-38.9 8.9-51.9 18.5-55.8 22.3zM512 434.3c-11 0-20-9-20-20V141.9c0-11 9-20 20-20s20 9 20 20v272.4c0 11-9 20-20 20zM639 451.6c-11 0-20-9-20-20v-236c0-11 9-20 20-20s20 9 20 20v236c0 11-9 20-20 20zM384 387.1c-11 0-20-9-20-20V195.6c0-11 9-20 20-20s20 9 20 20v171.5c0 11-9 20-20 20z" fill="#202D47" p-id="12081"></path><path d="M510.4 614.9L625 729.6" fill="#FFFFFF" p-id="12082"></path><path d="M524.598 600.777l114.621 114.62-28.284 28.284-114.62-114.62z" fill="#202D47" p-id="12083"></path><path d="M421.9 616.9l176.6 176.7" fill="#FFFFFF" p-id="12084"></path><path d="M436.062 602.74l176.633 176.634-28.284 28.284-176.633-176.634z" fill="#202D47" p-id="12085"></path><path d="M324.9 610.5l242.9 242.9" fill="#FFFFFF" p-id="12086"></path><path d="M339.067 596.295l242.89 242.89-28.285 28.283L310.783 624.58z" fill="#202D47" p-id="12087"></path><path d="M706.5 232.9C648.1 240.7 582 245.1 512 245.1c-90.8 0-175-7.4-244.3-19.9v50C337 287.7 421.2 295.1 512 295.1c70 0 136.1-4.4 194.5-12.1V232.9z" fill="#2DCD54" p-id="12088"></path></svg>