<?xml version="1.0" standalone="no"?><!DOCTYPE svg PUBLIC "-//W3C//DTD SVG 1.1//EN" "http://www.w3.org/Graphics/SVG/1.1/DTD/svg11.dtd"><svg t="1690253500710" class="icon" viewBox="0 0 1024 1024" version="1.1" xmlns="http://www.w3.org/2000/svg" p-id="9205" xmlns:xlink="http://www.w3.org/1999/xlink" width="32" height="32"><path d="M949.333333 170.666667c-17.066667 0-32 14.933333-32 32v10.666666H512c-164.266667 0-298.666667 134.4-298.666667 298.666667 0 38.4 6.4 72.533333 19.2 106.666667H106.666667v-10.666667c0-17.066667-14.933333-32-32-32S42.666667 590.933333 42.666667 608v213.333333c0 17.066667 14.933333 32 32 32S106.666667 838.4 106.666667 821.333333V810.666667h405.333333c164.266667 0 298.666667-134.4 298.666667-298.666667 0-38.4-6.4-72.533333-19.2-106.666667H917.333333v10.666667c0 17.066667 14.933333 32 32 32s32-14.933333 32-32v-213.333333c0-17.066667-14.933333-32-32-32zM512 682.666667c-93.866667 0-170.666667-76.8-170.666667-170.666667s76.8-170.666667 170.666667-170.666667 170.666667 76.8 170.666667 170.666667-76.8 170.666667-170.666667 170.666667z" p-id="9206"></path><path d="M608 497.066667l17.066667-17.066667c6.4-6.4 6.4-17.066667 0-23.466667-6.4-6.4-17.066667-6.4-23.466667 0l-40.533333 40.533334h-32v-32l40.533333-40.533334c6.4-6.4 6.4-17.066667 0-23.466666s-17.066667-6.4-23.466667 0l-17.066666 17.066666v-14.933333c0-8.533333-8.533333-17.066667-17.066667-17.066667s-17.066667 8.533333-17.066667 17.066667v14.933333l-17.066666-17.066666c-6.4-6.4-17.066667-6.4-23.466667 0-6.4 6.4-6.4 17.066667 0 23.466666l40.533333 40.533334v32h-32l-40.533333-40.533334c-6.4-6.4-17.066667-6.4-23.466667 0-6.4 6.4-6.4 17.066667 0 23.466667l17.066667 17.066667h-14.933333c-8.533333 0-17.066667 8.533333-17.066667 17.066666s8.533333 17.066667 17.066667 17.066667h14.933333l-17.066667 17.066667c-2.133333 2.133333-4.266667 8.533333-4.266666 12.8 0 8.533333 8.533333 17.066667 17.066666 17.066666 4.266667 0 8.533333-2.133333 12.8-4.266666l40.533334-40.533334h32v32l-40.533334 40.533334c-6.4 6.4-6.4 17.066667 0 23.466666 6.4 6.4 17.066667 6.4 23.466667 0l17.066667-17.066666v14.933333c0 8.533333 8.533333 17.066667 17.066666 17.066667s17.066667-8.533333 17.066667-17.066667v-14.933333l17.066667 17.066666c4.266667 4.266667 8.533333 4.266667 12.8 4.266667 4.266667 0 8.533333-2.133333 12.8-4.266667 6.4-6.4 6.4-17.066667 0-23.466666L533.333333 565.333333V533.333333h32l40.533334 40.533334c4.266667 4.266667 8.533333 4.266667 12.8 4.266666 4.266667 0 8.533333-2.133333 12.8-4.266666 6.4-6.4 6.4-17.066667 0-23.466667l-17.066667-17.066667h14.933333c8.533333 0 17.066667-8.533333 17.066667-17.066666s-8.533333-17.066667-17.066667-17.066667h-21.333333z" p-id="9207"></path></svg>