<?xml version="1.0" standalone="no"?><!DOCTYPE svg PUBLIC "-//W3C//DTD SVG 1.1//EN" "http://www.w3.org/Graphics/SVG/1.1/DTD/svg11.dtd"><svg t="1690253684656" class="icon" viewBox="0 0 1024 1024" version="1.1" xmlns="http://www.w3.org/2000/svg" p-id="12667" xmlns:xlink="http://www.w3.org/1999/xlink" width="32" height="32"><path d="M928 448h-128v-32c0-35.296-28.704-64-64-64h-133.344V288H736c35.296 0 64-28.704 64-64V192c0-35.296-28.704-64-64-64H320c-35.296 0-64 28.704-64 64v32c0 35.296 28.704 64 64 64h122.656v64H320c-35.296 0-64 28.704-64 64v32H96c-35.296 0-64 28.704-64 64v320c0 35.296 28.704 64 64 64h832c35.296 0 64-28.704 64-64V512c0-35.296-28.704-64-64-64zM320 192h416l0.032 32H320V192z m186.656 96h32v64h-32V288zM320 416h416v32H320v-32zM96 832V512h38.432v320H96z m102.432 0V512h640.224v320H198.432z m704.224 0V512H928l0.064 320h-25.408z" p-id="12668"></path></svg>