<?xml version="1.0" standalone="no"?><!DOCTYPE svg PUBLIC "-//W3C//DTD SVG 1.1//EN" "http://www.w3.org/Graphics/SVG/1.1/DTD/svg11.dtd"><svg t="1676960880724" class="icon" viewBox="0 0 1024 1024" version="1.1" xmlns="http://www.w3.org/2000/svg" p-id="2900" xmlns:xlink="http://www.w3.org/1999/xlink" width="32" height="32"><path d="M810.666667 128H213.333333c-46.933333 0-85.333333 38.4-85.333333 85.333333v597.333334c0 46.933333 38.4 85.333333 85.333333 85.333333h597.333334c46.933333 0 85.333333-38.4 85.333333-85.333333V213.333333c0-46.933333-38.4-85.333333-85.333333-85.333333z m0 640c0 23.466667-19.2 42.666667-42.666667 42.666667H256c-23.466667 0-42.666667-19.2-42.666667-42.666667V256c0-23.466667 19.2-42.666667 42.666667-42.666667h512c23.466667 0 42.666667 19.2 42.666667 42.666667v512z" fill="#2c2c2c" p-id="2901"></path><path d="M682.666667 381.866667v-85.333334H341.333333v85.333334h128V640h-128v85.333333h341.333334v-85.333333h-128V381.866667z" fill="#2c2c2c" p-id="2902"></path></svg>