<?xml version="1.0" standalone="no"?><!DOCTYPE svg PUBLIC "-//W3C//DTD SVG 1.1//EN" "http://www.w3.org/Graphics/SVG/1.1/DTD/svg11.dtd"><svg t="1690253600625" class="icon" viewBox="0 0 1024 1024" version="1.1" xmlns="http://www.w3.org/2000/svg" p-id="11513" xmlns:xlink="http://www.w3.org/1999/xlink" width="32" height="32"><path d="M769.1264 107.1616a10.26048 10.26048 0 0 0-9.07264-5.4784H263.936c-3.84 0-7.35232 2.14016-9.1136 5.55008-207.59552 403.61984-2.048 804.16768 0.0512 808.16128 1.77152 3.35872 5.25312 5.46816 9.04192 5.4784l494.68416 1.44384h0.03072a10.22976 10.22976 0 0 0 7.24992-3.01056l1.44384-1.44384c0.74752-0.74752 1.37216-1.60768 1.86368-2.54976 207.58528-403.6096 2.03776-804.15744-0.06144-808.15104z m-15.42144 15.0016c5.18144 10.752 17.14176 36.93568 30.62784 75.08992H648.63232c-9.61536-35.90144-18.30912-61.66528-23.13216-75.08992h128.2048z m-232.48896 0h82.45248c3.21536 8.52992 12.82048 35.05152 23.7568 75.08992H521.216V122.1632z m-20.48 0v75.08992H394.9568a965.48864 965.48864 0 0 1 25.43616-75.08992H500.736z m-230.52288 0h128.38912a988.40576 988.40576 0 0 0-25.088 75.08992H237.06624c9.5744-24.95488 20.48-50.01216 33.14688-75.08992z m-40.67328 95.55968h561.74592A1022.464 1022.464 0 0 1 822.272 335.45216H197.71392a810.52672 810.52672 0 0 1 31.82592-117.72928z m433.02912 455.64928H521.18528v-317.44h138.71104c20.89984 109.09696 21.83168 215.86944 2.67264 317.44z m-161.86368-317.44v317.44H364.45184c-21.13536-109.11744-22.2208-215.86944-3.35872-317.44h139.61216z m-306.72896 0h146.36032c-18.40128 101.77536-17.31584 208.4864 3.33824 317.44h-144.5888c-16.77312-89.99936-24.60672-199.65952-5.10976-317.44z m76.31872 544.48128c-5.09952-10.58816-16.7936-36.13696-30.04416-73.41056h135.44448c9.48224 35.24608 18.0224 60.5184 22.784 73.7792l-128.18432-0.36864z m230.44096 0.67584l-80.40448-0.23552c-3.1744-8.3968-12.60544-34.42688-23.41888-73.85088H500.736v74.0864z m20.48 0.06144v-74.14784h107.49952a968.64256 968.64256 0 0 1-25.31328 74.38336l-82.18624-0.23552z m231.84384 0.67584l-127.87712-0.36864a989.09184 989.09184 0 0 0 24.99584-74.4448h136.11008a815.616 815.616 0 0 1-33.2288 74.81344z m40.79616-95.30368H233.25696a1025.14688 1025.14688 0 0 1-30.13632-112.67072H825.0368a811.6224 811.6224 0 0 1-31.1808 112.67072zM683.3152 673.37216c18.688-101.76512 17.7664-208.4864-2.63168-317.44h145.4592c16.2304 90.44992 23.0912 200.04864 2.6624 317.44H683.3152z" p-id="11514"></path><path d="M354.63168 232.64256a43.99104 43.99104 0 0 0-43.93984 43.95008 44.00128 44.00128 0 0 0 43.93984 43.95008 44.00128 44.00128 0 0 0 43.95008-43.95008 44.00128 44.00128 0 0 0-43.95008-43.95008z m0 67.40992a23.49056 23.49056 0 0 1-23.45984-23.47008 23.49056 23.49056 0 0 1 23.45984-23.47008 23.49056 23.49056 0 0 1 23.47008 23.47008 23.49056 23.49056 0 0 1-23.47008 23.47008zM510.72 232.64256a44.00128 44.00128 0 0 0-43.95008 43.95008c0 24.22784 19.72224 43.95008 43.95008 43.95008s43.95008-19.712 43.95008-43.95008a44.00128 44.00128 0 0 0-43.95008-43.95008z m0 67.40992a23.49056 23.49056 0 0 1-23.47008-23.47008c0-12.94336 10.52672-23.47008 23.47008-23.47008s23.47008 10.52672 23.47008 23.47008a23.49056 23.49056 0 0 1-23.47008 23.47008zM666.80832 232.64256a44.00128 44.00128 0 0 0-43.95008 43.95008 44.01152 44.01152 0 0 0 43.95008 43.95008 43.99104 43.99104 0 0 0 43.93984-43.95008 43.99104 43.99104 0 0 0-43.93984-43.95008z m0 67.40992a23.49056 23.49056 0 0 1-23.47008-23.47008 23.49056 23.49056 0 0 1 23.47008-23.47008 23.49056 23.49056 0 0 1 23.45984 23.47008 23.49056 23.49056 0 0 1-23.45984 23.47008zM354.63168 794.13248a44.00128 44.00128 0 0 0 43.95008-43.95008 44.00128 44.00128 0 0 0-43.95008-43.93984 43.99104 43.99104 0 0 0-43.93984 43.93984 43.99104 43.99104 0 0 0 43.93984 43.95008z m0-67.40992a23.49056 23.49056 0 0 1 23.47008 23.45984 23.49056 23.49056 0 0 1-23.47008 23.47008 23.49056 23.49056 0 0 1-23.45984-23.47008 23.48032 23.48032 0 0 1 23.45984-23.45984zM510.72 794.13248a44.00128 44.00128 0 0 0 43.95008-43.95008c0-24.22784-19.72224-43.93984-43.95008-43.93984s-43.95008 19.712-43.95008 43.93984a44.00128 44.00128 0 0 0 43.95008 43.95008z m0-67.40992a23.49056 23.49056 0 0 1 23.47008 23.45984c0 12.94336-10.52672 23.47008-23.47008 23.47008s-23.47008-10.52672-23.47008-23.47008a23.49056 23.49056 0 0 1 23.47008-23.45984zM666.80832 794.13248a43.99104 43.99104 0 0 0 43.93984-43.95008 43.99104 43.99104 0 0 0-43.93984-43.93984 44.00128 44.00128 0 0 0-43.95008 43.93984 44.00128 44.00128 0 0 0 43.95008 43.95008z m0-67.40992a23.48032 23.48032 0 0 1 23.45984 23.45984 23.49056 23.49056 0 0 1-23.45984 23.47008 23.49056 23.49056 0 0 1-23.47008-23.47008 23.49056 23.49056 0 0 1 23.47008-23.45984z" p-id="11515"></path></svg>