<?xml version="1.0" standalone="no"?><!DOCTYPE svg PUBLIC "-//W3C//DTD SVG 1.1//EN" "http://www.w3.org/Graphics/SVG/1.1/DTD/svg11.dtd"><svg t="1691392558989" class="icon" viewBox="0 0 1024 1024" version="1.1" xmlns="http://www.w3.org/2000/svg" p-id="2459" xmlns:xlink="http://www.w3.org/1999/xlink" width="32" height="32"><path d="M0 0v1024h1024V0H0z m963.764706 963.764706H60.235294V60.235294h903.529412v903.529412zM240.941176 616.327529V783.058824h60.235295v-166.731295c44.453647-13.131294 77.161412-53.850353 77.161411-102.460235S345.630118 424.538353 301.176471 411.407059V240.941176H240.941176v170.465883c-44.453647 13.131294-77.161412 53.850353-77.161411 102.460235S196.487529 603.256471 240.941176 616.327529z m30.117648-149.504a47.104 47.104 0 0 1 0 94.08753 47.043765 47.043765 0 0 1 0-94.08753z m210.823529 21.504V783.058824h60.235294V488.327529c44.453647-13.131294 77.161412-53.850353 77.161412-102.460235S586.571294 296.538353 542.117647 283.407059V240.941176H481.882353v42.465883c-44.453647 13.131294-77.161412 53.850353-77.161412 102.460235S437.428706 475.256471 481.882353 488.327529z m30.117647-149.504a47.104 47.104 0 1 1-0.120471 94.208 47.104 47.104 0 0 1 0.120471-94.208z m240.941176 469.353412c59.151059 0 107.279059-48.128 107.279059-107.279059 0-48.670118-32.707765-89.328941-77.161411-102.460235V240.941176h-60.235295v357.496471a107.098353 107.098353 0 0 0-77.161411 102.460235c0 59.151059 48.128 107.279059 107.279058 107.279059z m0-154.383059a47.104 47.104 0 0 1 0 94.08753 47.104 47.104 0 0 1 0-94.08753z" p-id="2460"></path></svg>