<?xml version="1.0" standalone="no"?><!DOCTYPE svg PUBLIC "-//W3C//DTD SVG 1.1//EN" "http://www.w3.org/Graphics/SVG/1.1/DTD/svg11.dtd"><svg t="1690253302393" class="icon" viewBox="0 0 1024 1024" version="1.1" xmlns="http://www.w3.org/2000/svg" p-id="2243" xmlns:xlink="http://www.w3.org/1999/xlink" width="32" height="32"><path d="M587.413333 222.613333a346.666667 346.666667 0 0 0-145.813333 23.893334 5.333333 5.333333 0 0 1-7.36-4.906667V112a5.333333 5.333333 0 0 0-5.333333-5.333333H112a5.333333 5.333333 0 0 0-5.333333 5.333333v400a405.333333 405.333333 0 0 0 405.333333 405.333333h57.706667a347.573333 347.573333 0 0 0 17.76-694.72z m68.8 208l-82.773333 82.56a5.333333 5.333333 0 0 1-7.573333 0L483.146667 430.4a5.333333 5.333333 0 0 1 0.96-8.32 170.666667 170.666667 0 0 1 171.093333 0 5.333333 5.333333 0 0 1 0.8 8.32z m-287.36 295.306667a40 40 0 1 1-14.666666 54.613333 40 40 0 0 1 14.666666-54.613333z m-20.213333-197.333333a40 40 0 1 1-14.613333-54.613334 40 40 0 0 1 14.613333 54.56z m81.706667 128a5.333333 5.333333 0 0 1-8.373334-1.013334 170.666667 170.666667 0 0 1 0-171.04 5.333333 5.333333 0 0 1 8.373334-1.013333l82.72 82.453333a5.333333 5.333333 0 0 1 0 7.52z m64.48-378.666667a40 40 0 1 1-40 40 40 40 0 0 1 40-40.16zM181.333333 512V186.666667a5.333333 5.333333 0 0 1 5.333334-5.333334h167.466666a5.333333 5.333333 0 0 1 5.333334 5.333334v103.626666a5.333333 5.333333 0 0 1-2.08 4.16A347.733333 347.733333 0 0 0 250.666667 707.413333a1.973333 1.973333 0 0 1-3.36 1.973334A328.32 328.32 0 0 1 181.333333 512z m301.813334 197.333333l82.72-82.773333a5.333333 5.333333 0 0 1 7.573333 0L656 709.333333a5.333333 5.333333 0 0 1-1.013333 8.32 170.346667 170.346667 0 0 1-171.093334 0 5.333333 5.333333 0 0 1-0.746666-8.32z m161.333333 152.64a40 40 0 1 1 40-40 40 40 0 0 1-40 39.733334z m64.533333-205.44l-82.773333-82.773333a5.333333 5.333333 0 0 1 0-7.52l82.773333-83.04a5.333333 5.333333 0 0 1 8.32 1.013333 170.666667 170.666667 0 0 1 0 171.04 5.333333 5.333333 0 0 1-8.32 1.013334z m61.44-242.72a40 40 0 1 1 14.666667-54.613333 39.893333 39.893333 0 0 1-14.666667 54.346667z m34.88 251.733334a40 40 0 1 1 54.613334-14.613334 40 40 0 0 1-54.613334 14.613334z" p-id="2244" fill="#2c2c2c"></path></svg>