<?xml version="1.0" standalone="no"?><!DOCTYPE svg PUBLIC "-//W3C//DTD SVG 1.1//EN" "http://www.w3.org/Graphics/SVG/1.1/DTD/svg11.dtd"><svg t="1690253759486" class="icon" viewBox="0 0 1024 1024" version="1.1" xmlns="http://www.w3.org/2000/svg" p-id="12869" xmlns:xlink="http://www.w3.org/1999/xlink" width="32" height="32"><path d="M511.3 64c-247.4 0-448 200.6-448 448s200.6 448 448 448 448-200.6 448-448-200.5-448-448-448zM870 507.4c-0.6 2.1-5.2 9.3-19.7 18.8-17.5 11.5-43.5 22.5-75.1 31.8-70.1 20.7-162.5 32-260.2 32s-190.1-11.4-260.2-32c-31.6-9.3-57.5-20.3-75.1-31.8-14.5-9.5-19.1-16.7-19.7-18.8 0.6-2.1 5.2-9.3 19.7-18.8 17.5-11.5 43.5-22.5 75.1-31.8 70.1-20.7 162.5-32 260.2-32s190.1 11.4 260.2 32c31.6 9.3 57.5 20.3 75.1 31.8 14.4 9.5 19 16.7 19.7 18.8zM252.5 253.2c33.6-33.6 72.8-60 116.4-78.5 45.1-19.1 93-28.7 142.4-28.7s97.4 9.7 142.4 28.7c43.6 18.4 82.7 44.8 116.4 78.5 33.6 33.6 60 72.8 78.5 116.4 4.4 10.3 8.2 20.8 11.6 31.4-15.7-7.2-33.4-13.9-53-20.1-78.6-24.5-182.4-38.1-292.2-38.1s-213.6 13.5-292.2 38.1c-23.2 7.2-43.8 15.3-61.6 24.2 3.7-12 8-23.8 12.9-35.5 18.4-43.6 44.8-82.8 78.4-116.4z m517.6 517.6c-33.6 33.6-72.8 60-116.4 78.5-45.1 19.1-93 28.7-142.4 28.7s-97.4-9.7-142.4-28.7c-43.6-18.4-82.7-44.8-116.4-78.5-33.6-33.6-60-72.8-78.5-116.4-6.4-15.1-11.7-30.5-16-46.2 18.5 9.5 40.1 18.1 64.7 25.7C301.4 658.5 405.2 672 515 672s213.6-13.5 292.2-38.1c20.9-6.5 39.7-13.7 56.2-21.6-4.1 14.3-9 28.3-14.8 42-18.4 43.7-44.8 82.8-78.5 116.5z" p-id="12870"></path><path d="M359.4 265.8m-45 0a45 45 0 1 0 90 0 45 45 0 1 0-90 0Z" p-id="12871"></path></svg>