<?xml version="1.0" standalone="no"?><!DOCTYPE svg PUBLIC "-//W3C//DTD SVG 1.1//EN" "http://www.w3.org/Graphics/SVG/1.1/DTD/svg11.dtd"><svg t="1680594324009" class="icon" viewBox="0 0 1024 1024" version="1.1" xmlns="http://www.w3.org/2000/svg" p-id="2842" xmlns:xlink="http://www.w3.org/1999/xlink" width="32" height="32"><path d="M640 146.592V282.56a320 320 0 0 1 98.272 67.168C798.72 410.176 832 490.528 832 576s-33.28 165.824-93.728 226.272C677.824 862.72 597.472 896 512 896s-165.824-33.28-226.272-93.728C225.28 741.824 192 661.472 192 576s33.28-165.824 93.728-226.272A319.424 319.424 0 0 1 384 282.56V146.592C198.944 201.664 64 373.056 64 576c0 247.424 200.576 448 448 448s448-200.576 448-448c0-202.944-134.944-374.336-320-429.408zM448 0h128v512h-128z" p-id="2843"></path></svg>